REM GENRE "Drum & Bass"
REM DATE 1997
REM DISCID 610AEA08
REM COMMENT "ExactAudioCopy v0.99pb3"
PERFORMER "Various Artists"
TITLE " ŪŤ„ŗ šśůŪ„ŽŚť. “Óž 1"
FILE "01 - Mega-Phone - Hard Dramma.wav" WAVE
  TRACK 01 AUDIO
    TITLE "Hard Dramma"
    PERFORMER "Mega-Phone"
    PREGAP 00:00:10
    INDEX 01 00:00:00
  TRACK 02 AUDIO
    TITLE "Protein"
    PERFORMER "Plexus"
    INDEX 00 05:29:56
FILE "02 - Plexus - Protein.wav" WAVE
    INDEX 01 00:00:00
  TRACK 03 AUDIO
    TITLE "Byaz‹ (Poison)"
    PERFORMER "Radiotrance vs DJ Dan"
    INDEX 00 06:13:44
FILE "03 - Radiotrance vs DJ Dan - Byaz‹ (Poison).wav" WAVE
    INDEX 01 00:00:00
  TRACK 04 AUDIO
    TITLE "Chillout XTC"
    PERFORMER "Aqualung"
    INDEX 00 07:47:01
FILE "04 - Aqualung - Chillout XTC.wav" WAVE
    INDEX 01 00:00:00
  TRACK 05 AUDIO
    TITLE "Sessions"
    PERFORMER "Djungl vs Dad D"
    INDEX 00 05:25:52
FILE "05 - Djungl vs Dad D - Sessions.wav" WAVE
    INDEX 01 00:00:00
  TRACK 06 AUDIO
    TITLE "Another Side Of The Sun"
    PERFORMER "The Crude Project"
    INDEX 00 06:06:68
FILE "06 - The Crude Project - Another Side Of The Sun.wav" WAVE
    INDEX 01 00:00:00
  TRACK 07 AUDIO
    TITLE "Gun Power"
    PERFORMER "DJ Dan"
    INDEX 00 04:38:53
FILE "07 - DJ Dan - Gun Power.wav" WAVE
    INDEX 01 00:00:00
  TRACK 08 AUDIO
    TITLE "Base Problems"
    PERFORMER "The Crude Project"
    INDEX 00 06:26:05
FILE "08 - The Crude Project - Base Problems.wav" WAVE
    INDEX 01 00:00:00
